<?xml version="1.0" encoding="UTF-8"?>
<svg width="120px" height="48px" viewBox="0 0 120 48" version="1.1" xmlns="http://www.w3.org/2000/svg" xmlns:xlink="http://www.w3.org/1999/xlink">
    <title>angular</title>
    <g id="Page-1" stroke="none" stroke-width="1" fill="none" fill-rule="evenodd">
        <g id="Header-A" transform="translate(-520.000000, -692.000000)">
            <rect fill="#FFFFFF" x="0" y="0" width="1440" height="1009"></rect>
            <g id="frameworks" transform="translate(160.000000, 692.000000)" fill-rule="nonzero">
                <g id="angular" transform="translate(374.000000, 9.000000)">
                    <path d="M44.56,20.064 C44.816,20.064 45.0426667,19.9786667 45.24,19.808 C45.4373333,19.6373333 45.536,19.4293333 45.536,19.184 C45.536,19.0453333 45.504,18.9066667 45.44,18.768 L45.44,18.768 L41.008,9.28 C40.912,9.06666667 40.7653333,8.904 40.568,8.792 C40.3706667,8.68 40.16,8.624 39.936,8.624 C39.712,8.624 39.5013333,8.68 39.304,8.792 C39.1066667,8.904 38.96,9.06666667 38.864,9.28 L38.864,9.28 L34.448,18.768 C34.384,18.9066667 34.352,19.0453333 34.352,19.184 C34.352,19.4293333 34.4533333,19.6373333 34.656,19.808 C34.8586667,19.9786667 35.0826667,20.064 35.328,20.064 C35.5093333,20.064 35.6746667,20.0186667 35.824,19.928 C35.9733333,19.8373333 36.0906667,19.696 36.176,19.504 L36.176,19.504 L37.136,17.36 L42.768,17.36 L43.728,19.504 C43.8133333,19.696 43.9306667,19.8373333 44.08,19.928 C44.2293333,20.0186667 44.3893333,20.064 44.56,20.064 Z M42.064,15.76 L37.84,15.76 L39.952,11.008 L42.064,15.76 Z M53.248,20.096 C53.5573333,20.096 53.8,20.0106667 53.976,19.84 C54.152,19.6693333 54.24,19.4346667 54.24,19.136 L54.24,19.136 L54.24,15.2 C54.24,14.1226667 54.0106667,13.3173333 53.552,12.784 C53.0933333,12.2506667 52.3946667,11.984 51.456,11.984 C50.8906667,11.984 50.384,12.1013333 49.936,12.336 C49.488,12.5706667 49.1306667,12.9066667 48.864,13.344 L48.864,13.344 L48.864,12.912 C48.864,12.6453333 48.776,12.4293333 48.6,12.264 C48.424,12.0986667 48.1973333,12.016 47.92,12.016 C47.6106667,12.016 47.3653333,12.1013333 47.184,12.272 C47.0026667,12.4426667 46.912,12.6666667 46.912,12.944 L46.912,12.944 L46.912,19.136 C46.912,19.4346667 47,19.6693333 47.176,19.84 C47.352,20.0106667 47.5946667,20.096 47.904,20.096 C48.2133333,20.096 48.4586667,20.0106667 48.64,19.84 C48.8213333,19.6693333 48.912,19.4346667 48.912,19.136 L48.912,19.136 L48.912,15.568 C48.912,14.96 49.0853333,14.4746667 49.432,14.112 C49.7786667,13.7493333 50.24,13.568 50.816,13.568 C51.3066667,13.568 51.6666667,13.7066667 51.896,13.984 C52.1253333,14.2613333 52.24,14.704 52.24,15.312 L52.24,15.312 L52.24,19.136 C52.24,19.4346667 52.3306667,19.6693333 52.512,19.84 C52.6933333,20.0106667 52.9386667,20.096 53.248,20.096 Z M59.84,23.008 C61.1733333,23.008 62.1813333,22.6933333 62.864,22.064 C63.5466667,21.4346667 63.888,20.5066667 63.888,19.28 L63.888,19.28 L63.888,12.96 C63.888,12.672 63.7973333,12.4426667 63.616,12.272 C63.4346667,12.1013333 63.1946667,12.016 62.896,12.016 C62.5973333,12.016 62.3573333,12.1013333 62.176,12.272 C61.9946667,12.4426667 61.904,12.6666667 61.904,12.944 L61.904,12.944 L61.904,13.36 C61.6693333,12.9226667 61.328,12.584 60.88,12.344 C60.432,12.104 59.92,11.984 59.344,11.984 C58.6613333,11.984 58.0533333,12.1466667 57.52,12.472 C56.9866667,12.7973333 56.5733333,13.256 56.28,13.848 C55.9866667,14.44 55.84,15.12 55.84,15.888 C55.84,16.656 55.9893333,17.3333333 56.288,17.92 C56.5866667,18.5066667 57,18.9626667 57.528,19.288 C58.056,19.6133333 58.6613333,19.776 59.344,19.776 C59.92,19.776 60.432,19.656 60.88,19.416 C61.328,19.176 61.6693333,18.8373333 61.904,18.4 L61.904,18.4 L61.904,19.424 C61.904,20.7893333 61.2053333,21.472 59.808,21.472 C59.4133333,21.472 59.064,21.4293333 58.76,21.344 C58.456,21.2586667 58.112,21.136 57.728,20.976 C57.5786667,20.912 57.4346667,20.856 57.296,20.808 C57.1573333,20.76 57.04,20.736 56.944,20.736 C56.7626667,20.736 56.616,20.8053333 56.504,20.944 C56.392,21.0826667 56.336,21.2693333 56.336,21.504 C56.336,21.8346667 56.5333333,22.1173333 56.928,22.352 C57.7066667,22.7893333 58.6773333,23.008 59.84,23.008 Z M59.872,18.224 C59.2426667,18.224 58.7466667,18.016 58.384,17.6 C58.0213333,17.184 57.84,16.6133333 57.84,15.888 C57.84,15.152 58.0213333,14.576 58.384,14.16 C58.7466667,13.744 59.2426667,13.536 59.872,13.536 C60.512,13.536 61.0106667,13.744 61.368,14.16 C61.7253333,14.576 61.904,15.152 61.904,15.888 C61.904,16.6133333 61.7253333,17.184 61.368,17.6 C61.0106667,18.016 60.512,18.224 59.872,18.224 Z M68.784,20.128 C69.3066667,20.128 69.776,20.0133333 70.192,19.784 C70.608,19.5546667 70.9386667,19.2266667 71.184,18.8 L71.184,18.8 L71.184,19.2 C71.184,19.4773333 71.2693333,19.696 71.44,19.856 C71.6106667,20.016 71.84,20.096 72.128,20.096 C72.4266667,20.096 72.6693333,20.0106667 72.856,19.84 C73.0426667,19.6693333 73.136,19.4453333 73.136,19.168 L73.136,19.168 L73.136,12.96 C73.136,12.672 73.0453333,12.4426667 72.864,12.272 C72.6826667,12.1013333 72.4373333,12.016 72.128,12.016 C71.8293333,12.016 71.5893333,12.1013333 71.408,12.272 C71.2266667,12.4426667 71.136,12.672 71.136,12.96 L71.136,12.96 L71.136,16.528 C71.136,17.136 70.968,17.624 70.632,17.992 C70.296,18.36 69.8506667,18.544 69.296,18.544 C68.816,18.544 68.464,18.4106667 68.24,18.144 C68.016,17.8773333 67.904,17.4666667 67.904,16.912 L67.904,16.912 L67.904,12.96 C67.904,12.672 67.8133333,12.4426667 67.632,12.272 C67.4506667,12.1013333 67.2053333,12.016 66.896,12.016 C66.5973333,12.016 66.3573333,12.1013333 66.176,12.272 C65.9946667,12.4426667 65.904,12.672 65.904,12.96 L65.904,12.96 L65.904,16.896 C65.904,19.0506667 66.864,20.128 68.784,20.128 Z M76.208,20.096 C76.496,20.096 76.736,20.0133333 76.928,19.848 C77.12,19.6826667 77.216,19.4453333 77.216,19.136 L77.216,19.136 L77.216,9.584 C77.216,9.27466667 77.12,9.04 76.928,8.88 C76.736,8.72 76.496,8.64 76.208,8.64 C75.92,8.64 75.6826667,8.72 75.496,8.88 C75.3093333,9.04 75.216,9.27466667 75.216,9.584 L75.216,9.584 L75.216,19.136 C75.216,19.4453333 75.3093333,19.6826667 75.496,19.848 C75.6826667,20.0133333 75.92,20.096 76.208,20.096 Z M81.776,20.128 C82.288,20.128 82.7386667,20.0106667 83.128,19.776 C83.5173333,19.5413333 83.8026667,19.216 83.984,18.8 L83.984,18.8 L83.984,19.152 C83.984,19.4293333 84.072,19.6533333 84.248,19.824 C84.424,19.9946667 84.6506667,20.08 84.928,20.08 C85.2266667,20.08 85.4613333,19.9973333 85.632,19.832 C85.8026667,19.6666667 85.888,19.44 85.888,19.152 L85.888,19.152 L85.888,15.248 C85.888,14.1493333 85.624,13.3306667 85.096,12.792 C84.568,12.2533333 83.76,11.984 82.672,11.984 C82.1706667,11.984 81.6613333,12.0426667 81.144,12.16 C80.6266667,12.2773333 80.1813333,12.4373333 79.808,12.64 C79.5946667,12.7573333 79.4426667,12.8826667 79.352,13.016 C79.2613333,13.1493333 79.216,13.3066667 79.216,13.488 C79.216,13.712 79.2773333,13.8933333 79.4,14.032 C79.5226667,14.1706667 79.68,14.24 79.872,14.24 C80,14.24 80.2026667,14.1706667 80.48,14.032 C80.9173333,13.8613333 81.296,13.7306667 81.616,13.64 C81.936,13.5493333 82.2506667,13.504 82.56,13.504 C83.0613333,13.504 83.424,13.624 83.648,13.864 C83.872,14.104 83.984,14.4853333 83.984,15.008 L83.984,15.008 L83.984,15.376 L83.584,15.376 C82.4213333,15.376 81.5093333,15.4506667 80.848,15.6 C80.1866667,15.7493333 79.7093333,15.9893333 79.416,16.32 C79.1226667,16.6506667 78.976,17.104 78.976,17.68 C78.976,18.1386667 79.0986667,18.5546667 79.344,18.928 C79.5893333,19.3013333 79.9253333,19.5946667 80.352,19.808 C80.7786667,20.0213333 81.2533333,20.128 81.776,20.128 Z M82.176,18.688 C81.824,18.688 81.528,18.5786667 81.288,18.36 C81.048,18.1413333 80.928,17.8613333 80.928,17.52 C80.928,17.2426667 81.0133333,17.024 81.184,16.864 C81.3546667,16.704 81.6373333,16.592 82.032,16.528 C82.4266667,16.464 82.9813333,16.432 83.696,16.432 L83.696,16.432 L83.984,16.432 L83.984,16.768 C83.984,17.3333333 83.816,17.7946667 83.48,18.152 C83.144,18.5093333 82.7093333,18.688 82.176,18.688 Z M88.912,20.096 C89.2,20.096 89.44,20.0133333 89.632,19.848 C89.824,19.6826667 89.92,19.4453333 89.92,19.136 L89.92,19.136 L89.92,15.776 C89.92,15.232 90.0666667,14.7786667 90.36,14.416 C90.6533333,14.0533333 91.1146667,13.84 91.744,13.776 L91.744,13.776 L92.224,13.728 C92.5866667,13.6853333 92.8373333,13.5946667 92.976,13.456 C93.1146667,13.3173333 93.184,13.104 93.184,12.816 C93.184,12.5386667 93.104,12.3306667 92.944,12.192 C92.784,12.0533333 92.5653333,11.9946667 92.288,12.016 L92.288,12.016 L92.064,12.032 C91.5733333,12.064 91.128,12.208 90.728,12.464 C90.328,12.72 90.0266667,13.0826667 89.824,13.552 L89.824,13.552 L89.824,12.912 C89.824,12.624 89.7386667,12.4026667 89.568,12.248 C89.3973333,12.0933333 89.1733333,12.016 88.896,12.016 C88.6186667,12.016 88.3866667,12.096 88.2,12.256 C88.0133333,12.416 87.92,12.6453333 87.92,12.944 L87.92,12.944 L87.92,19.136 C87.92,19.4453333 88.0133333,19.6826667 88.2,19.848 C88.3866667,20.0133333 88.624,20.096 88.912,20.096 Z" id="Angular" fill="#2C2C2C"></path>
                    <path d="M14,0.078125 L14,3.359375 L22.671875,22.8125 L19.390625,22.8125 L17.671875,18.515625 L14,18.515625 L14,29.921875 L25.796875,23.359375 L27.90625,5 L14,0.078125 Z M14,9.6875 L14,15.78125 L16.578125,15.78125 L14,9.6875 Z" id="a" fill="#C3002F"></path>
                    <g id="a-link" transform="translate(7.000000, 15.078125) scale(-1, 1) translate(-7.000000, -15.078125) translate(0.000000, 0.078125)" fill="#DD0031">
                        <path d="M0,0 L0,3.28125 L8.671875,22.734375 L5.390625,22.734375 L3.671875,18.4375 L0,18.4375 L0,29.84375 L11.796875,23.28125 L13.90625,4.921875 L0,0 Z M0,9.609375 L0,15.703125 L2.578125,15.703125 L0,9.609375 Z" id="a"></path>
                    </g>
                </g>
            </g>
        </g>
    </g>
</svg>