<?xml version="1.0" encoding="UTF-8"?>
<svg width="120px" height="48px" viewBox="0 0 120 48" version="1.1" xmlns="http://www.w3.org/2000/svg" xmlns:xlink="http://www.w3.org/1999/xlink">
    <title>js</title>
    <g id="Page-1" stroke="none" stroke-width="1" fill="none" fill-rule="evenodd">
        <g id="Header-A" transform="translate(-160.000000, -692.000000)">
            <rect fill="#FFFFFF" x="0" y="0" width="1440" height="1009"></rect>
            <g id="frameworks" transform="translate(160.000000, 692.000000)">
                <g id="js" transform="translate(3.000000, 7.000000)">
                    <rect id="Rectangle" fill="#F7DF1E" fill-rule="nonzero" x="0" y="0" width="30" height="30" rx="0.87890625"></rect>
                    <path d="M18.984375,19.6796875 C19.5703125,20.6757812 20.390625,21.3789062 21.7382812,21.3789062 C22.9101562,21.3789062 23.671875,20.7929688 23.671875,19.9726562 C23.671875,19.0351562 22.9101562,18.6835938 21.6210938,18.0976562 L20.9179688,17.8046875 C18.8671875,16.9257812 17.5195312,15.8710938 17.5195312,13.5859375 C17.5195312,11.4765625 19.1015625,9.8359375 21.6210938,9.8359375 C23.4375,9.8359375 24.7265625,10.4804688 25.6054688,12.1210938 L23.4375,13.5273438 C22.96875,12.6484375 22.4414062,12.296875 21.6210938,12.296875 C20.8007812,12.296875 20.2734375,12.8242188 20.2734375,13.5273438 C20.2734375,14.3476562 20.8007812,14.6992188 22.03125,15.2265625 L22.734375,15.5195312 C25.1367188,16.5742188 26.484375,17.5703125 26.484375,19.9726562 C26.484375,22.4921875 24.4921875,23.8984375 21.796875,23.8984375 C19.1601562,23.8984375 17.4609375,22.6679688 16.640625,21.0273438 L18.984375,19.6796875 Z M9.0234375,19.9140625 C9.4921875,20.6757812 9.84375,21.3789062 10.8398438,21.3789062 C11.7773438,21.3789062 12.3632812,21.0273438 12.3632812,19.6210938 L12.3632812,9.89453125 L15.1757812,9.89453125 L15.1757812,19.5039062 C15.1757812,22.4335938 13.4765625,23.7226562 10.9570312,23.7226562 C8.671875,23.7226562 7.3828125,22.5507812 6.73828125,21.1445312 L9.0234375,19.9140625 Z" id="Shape" fill="#000000" fill-rule="nonzero"></path>
                    <text id="Javascript" font-family="Nunito-Bold, Nunito" font-size="16" font-weight="bold" fill="#2C2C2C">
                        <tspan x="38" y="22">Javascript</tspan>
                    </text>
                </g>
            </g>
        </g>
    </g>
</svg>