<?xml version="1.0" encoding="UTF-8"?>
<svg width="120px" height="48px" viewBox="0 0 120 48" version="1.1" xmlns="http://www.w3.org/2000/svg" xmlns:xlink="http://www.w3.org/1999/xlink">
    <title>react</title>
    <g id="Page-1" stroke="none" stroke-width="1" fill="none" fill-rule="evenodd">
        <g id="Header-A" transform="translate(-280.000000, -692.000000)">
            <rect fill="#FFFFFF" x="0" y="0" width="1440" height="1009"></rect>
            <g id="frameworks" transform="translate(160.000000, 692.000000)">
                <g id="react" transform="translate(137.000000, 9.000000)">
                    <circle id="Oval" fill="#32CDFB" fill-rule="nonzero" cx="15.336" cy="13.608" r="2.808"></circle>
                    <path d="M15.1204662,7.776 C18.9075752,7.776 22.4261742,8.32603737 25.0786422,9.24968503 C28.2746564,10.3629682 30.24,12.0508187 30.24,13.5792245 C30.24,15.1717855 28.1571833,16.9653036 24.7252906,18.1153817 C22.1306268,18.9852521 18.715516,19.44 15.1204662,19.44 C11.4340484,19.44 7.94435147,19.0135559 5.31985324,18.1059471 C1.99983968,16.9577559 0,15.1415948 0,13.5792245 C0,12.0630837 1.87677262,10.3884416 5.02803515,9.27704538 C7.69075875,8.33830235 11.2960641,7.776 15.1204662,7.776 L15.1204662,7.776 Z" id="Path" stroke="#32CDFB" stroke-width="1.87590298"></path>
                    <path d="M10.1017872,10.5146727 C12.0074959,7.22881669 14.2532078,4.44811787 16.3852722,2.60396737 C18.9540811,0.381649296 21.3989109,-0.48860299 22.7166582,0.266798404 C24.0898203,1.0539472 24.5885544,3.74780755 23.853133,7.29511274 C23.2971057,9.97683438 21.9709052,13.1637132 20.1609986,16.2833622 C18.3060086,19.481446 16.1814581,22.298561 14.07851,24.1268378 C11.417656,26.4397293 8.84415098,27.2763667 7.49728738,26.5041578 C6.18987168,25.7543589 5.69019843,23.2986041 6.31666846,20.0146156 C6.84639724,17.2376517 8.17635459,13.8322761 10.1017872,10.5146727 Z" id="Path" stroke="#32CDFB" stroke-width="1.87590298"></path>
                    <path d="M10.0874373,16.2724232 C8.18115506,12.9868708 6.88282226,9.66207114 6.34138189,6.90261826 C5.68940525,3.57781861 6.15028529,1.03515986 7.46360605,0.27731486 C8.83219495,-0.513236152 11.4213666,0.403466617 14.1379359,2.80969458 C16.1922244,4.62908325 18.3008442,7.3651747 20.1106414,10.4843937 C21.9663393,13.6821071 23.3574102,16.9209367 23.8979138,19.6467491 C24.5826766,23.096766 24.0281218,25.7328705 22.6857618,26.5075358 C21.3827453,27.259774 18.9996583,26.4636163 16.4573241,24.2816581 C14.3102975,22.4379735 12.0124546,19.5897472 10.0874373,16.2724232 Z" id="Path" stroke="#32CDFB" stroke-width="1.87590298"></path>
                    <path d="M46.44,19.112 C46.7066667,19.112 46.9386667,19.032 47.136,18.872 C47.3333333,18.712 47.432,18.5093333 47.432,18.264 C47.432,18.0826667 47.368,17.896 47.24,17.704 L47.24,17.704 L45.784,15.48 C45.56,15.1386667 45.3306667,14.872 45.096,14.68 C44.8613333,14.488 44.5893333,14.3546667 44.28,14.28 C45.1866667,14.12 45.888,13.76 46.384,13.2 C46.88,12.64 47.128,11.9226667 47.128,11.048 C47.128,9.97066667 46.7946667,9.14666667 46.128,8.576 C45.4613333,8.00533333 44.488,7.72 43.208,7.72 L43.208,7.72 L39.208,7.72 C38.8986667,7.72 38.656,7.80533333 38.48,7.976 C38.304,8.14666667 38.216,8.38666667 38.216,8.696 L38.216,8.696 L38.216,18.056 C38.216,18.376 38.3093333,18.6293333 38.496,18.816 C38.6826667,19.0026667 38.9306667,19.096 39.24,19.096 C39.5493333,19.096 39.7946667,19.0026667 39.976,18.816 C40.1573333,18.6293333 40.248,18.376 40.248,18.056 L40.248,18.056 L40.248,14.472 L41.816,14.472 C42.2,14.472 42.512,14.5413333 42.752,14.68 C42.992,14.8186667 43.2186667,15.0586667 43.432,15.4 L43.432,15.4 L45.56,18.632 C45.6666667,18.792 45.7973333,18.912 45.952,18.992 C46.1066667,19.072 46.2693333,19.112 46.44,19.112 Z M42.92,12.888 L40.232,12.888 L40.232,9.32 L42.92,9.32 C43.6986667,9.32 44.2693333,9.46133333 44.632,9.744 C44.9946667,10.0266667 45.176,10.4773333 45.176,11.096 C45.176,11.704 44.9946667,12.1546667 44.632,12.448 C44.2693333,12.7413333 43.6986667,12.888 42.92,12.888 L42.92,12.888 Z M52.824,19.128 C53.24,19.128 53.6773333,19.0666667 54.136,18.944 C54.5946667,18.8213333 55.0053333,18.6586667 55.368,18.456 C55.7626667,18.232 55.96,17.9546667 55.96,17.624 C55.96,17.3893333 55.904,17.2026667 55.792,17.064 C55.68,16.9253333 55.5333333,16.856 55.352,16.856 C55.2026667,16.856 54.968,16.9413333 54.648,17.112 C54.3173333,17.2613333 54.0213333,17.3786667 53.76,17.464 C53.4986667,17.5493333 53.1973333,17.592 52.856,17.592 C52.184,17.592 51.672,17.4186667 51.32,17.072 C50.968,16.7253333 50.76,16.184 50.696,15.448 L50.696,15.448 L55.416,15.448 C55.8213333,15.448 56.024,15.2186667 56.024,14.76 C56.024,13.992 55.88,13.3253333 55.592,12.76 C55.304,12.1946667 54.8986667,11.7573333 54.376,11.448 C53.8533333,11.1386667 53.24,10.984 52.536,10.984 C51.8,10.984 51.1413333,11.1546667 50.56,11.496 C49.9786667,11.8373333 49.528,12.3173333 49.208,12.936 C48.888,13.5546667 48.728,14.264 48.728,15.064 C48.728,16.3226667 49.096,17.3146667 49.832,18.04 C50.568,18.7653333 51.5653333,19.128 52.824,19.128 Z M54.312,14.376 L50.696,14.376 C50.76,13.736 50.9546667,13.2453333 51.28,12.904 C51.6053333,12.5626667 52.04,12.392 52.584,12.392 C53.1173333,12.392 53.5333333,12.56 53.832,12.896 C54.1306667,13.232 54.2906667,13.7253333 54.312,14.376 L54.312,14.376 Z M60.152,19.128 C60.664,19.128 61.1146667,19.0106667 61.504,18.776 C61.8933333,18.5413333 62.1786667,18.216 62.36,17.8 L62.36,17.8 L62.36,18.152 C62.36,18.4293333 62.448,18.6533333 62.624,18.824 C62.8,18.9946667 63.0266667,19.08 63.304,19.08 C63.6026667,19.08 63.8373333,18.9973333 64.008,18.832 C64.1786667,18.6666667 64.264,18.44 64.264,18.152 L64.264,18.152 L64.264,14.248 C64.264,13.1493333 64,12.3306667 63.472,11.792 C62.944,11.2533333 62.136,10.984 61.048,10.984 C60.5466667,10.984 60.0373333,11.0426667 59.52,11.16 C59.0026667,11.2773333 58.5573333,11.4373333 58.184,11.64 C57.9706667,11.7573333 57.8186667,11.8826667 57.728,12.016 C57.6373333,12.1493333 57.592,12.3066667 57.592,12.488 C57.592,12.712 57.6533333,12.8933333 57.776,13.032 C57.8986667,13.1706667 58.056,13.24 58.248,13.24 C58.376,13.24 58.5786667,13.1706667 58.856,13.032 C59.2933333,12.8613333 59.672,12.7306667 59.992,12.64 C60.312,12.5493333 60.6266667,12.504 60.936,12.504 C61.4373333,12.504 61.8,12.624 62.024,12.864 C62.248,13.104 62.36,13.4853333 62.36,14.008 L62.36,14.008 L62.36,14.376 L61.96,14.376 C60.7973333,14.376 59.8853333,14.4506667 59.224,14.6 C58.5626667,14.7493333 58.0853333,14.9893333 57.792,15.32 C57.4986667,15.6506667 57.352,16.104 57.352,16.68 C57.352,17.1386667 57.4746667,17.5546667 57.72,17.928 C57.9653333,18.3013333 58.3013333,18.5946667 58.728,18.808 C59.1546667,19.0213333 59.6293333,19.128 60.152,19.128 Z M60.552,17.688 C60.2,17.688 59.904,17.5786667 59.664,17.36 C59.424,17.1413333 59.304,16.8613333 59.304,16.52 C59.304,16.2426667 59.3893333,16.024 59.56,15.864 C59.7306667,15.704 60.0133333,15.592 60.408,15.528 C60.8026667,15.464 61.3573333,15.432 62.072,15.432 L62.072,15.432 L62.36,15.432 L62.36,15.768 C62.36,16.3333333 62.192,16.7946667 61.856,17.152 C61.52,17.5093333 61.0853333,17.688 60.552,17.688 Z M69.768,19.128 C70.2266667,19.128 70.6746667,19.0666667 71.112,18.944 C71.5493333,18.8213333 71.9333333,18.6533333 72.264,18.44 C72.4453333,18.3333333 72.576,18.2133333 72.656,18.08 C72.736,17.9466667 72.776,17.7893333 72.776,17.608 C72.776,17.384 72.7173333,17.1973333 72.6,17.048 C72.4826667,16.8986667 72.3386667,16.824 72.168,16.824 C72.0506667,16.824 71.9333333,16.848 71.816,16.896 C71.6986667,16.944 71.56,17.016 71.4,17.112 C71.144,17.2506667 70.912,17.36 70.704,17.44 C70.496,17.52 70.2586667,17.56 69.992,17.56 C69.3306667,17.56 68.8213333,17.344 68.464,16.912 C68.1066667,16.48 67.928,15.864 67.928,15.064 C67.928,14.2533333 68.1066667,13.632 68.464,13.2 C68.8213333,12.768 69.3306667,12.552 69.992,12.552 C70.2693333,12.552 70.5146667,12.592 70.728,12.672 C70.9413333,12.752 71.1653333,12.8613333 71.4,13 C71.528,13.0746667 71.656,13.1386667 71.784,13.192 C71.912,13.2453333 72.0346667,13.272 72.152,13.272 C72.3333333,13.272 72.48,13.2 72.592,13.056 C72.704,12.912 72.76,12.7226667 72.76,12.488 C72.76,12.1466667 72.5893333,11.864 72.248,11.64 C71.928,11.4373333 71.5573333,11.2773333 71.136,11.16 C70.7146667,11.0426667 70.296,10.984 69.88,10.984 C69.0906667,10.984 68.392,11.1546667 67.784,11.496 C67.176,11.8373333 66.704,12.32 66.368,12.944 C66.032,13.568 65.864,14.2853333 65.864,15.096 C65.864,15.9066667 66.024,16.616 66.344,17.224 C66.664,17.832 67.12,18.3013333 67.712,18.632 C68.304,18.9626667 68.9893333,19.128 69.768,19.128 Z M77.768,19.08 C78.152,19.1013333 78.448,19.0453333 78.656,18.912 C78.864,18.7786667 78.968,18.584 78.968,18.328 C78.968,17.88 78.7013333,17.64 78.168,17.608 L78.168,17.608 L77.736,17.576 C77.0106667,17.5226667 76.648,17.1013333 76.648,16.312 L76.648,16.312 L76.648,12.68 L78.008,12.68 C78.296,12.68 78.5173333,12.616 78.672,12.488 C78.8266667,12.36 78.904,12.1733333 78.904,11.928 C78.904,11.6826667 78.8266667,11.496 78.672,11.368 C78.5173333,11.24 78.296,11.176 78.008,11.176 L78.008,11.176 L76.648,11.176 L76.648,9.704 C76.648,9.416 76.5573333,9.18666667 76.376,9.016 C76.1946667,8.84533333 75.9546667,8.76 75.656,8.76 C75.3466667,8.76 75.1013333,8.84533333 74.92,9.016 C74.7386667,9.18666667 74.648,9.416 74.648,9.704 L74.648,9.704 L74.648,11.176 L73.848,11.176 C73.56,11.176 73.3386667,11.24 73.184,11.368 C73.0293333,11.496 72.952,11.6826667 72.952,11.928 C72.952,12.1733333 73.0293333,12.36 73.184,12.488 C73.3386667,12.616 73.56,12.68 73.848,12.68 L73.848,12.68 L74.648,12.68 L74.648,16.168 C74.648,17.96 75.544,18.92 77.336,19.048 L77.336,19.048 L77.768,19.08 Z" id="React" fill="#2C2C2C" fill-rule="nonzero"></path>
                </g>
            </g>
        </g>
    </g>
</svg>