<?xml version="1.0" encoding="UTF-8"?>
<svg width="120px" height="48px" viewBox="0 0 120 48" version="1.1" xmlns="http://www.w3.org/2000/svg" xmlns:xlink="http://www.w3.org/1999/xlink">
    <title>svelte</title>
    <g id="Page-1" stroke="none" stroke-width="1" fill="none" fill-rule="evenodd">
        <g id="Header-A" transform="translate(-640.000000, -692.000000)">
            <rect fill="#FFFFFF" x="0" y="0" width="1440" height="1009"></rect>
            <g id="frameworks" transform="translate(160.000000, 692.000000)" fill-rule="nonzero">
                <g id="svelte-logo" transform="translate(496.000000, 10.000000)">
                    <path d="M22.4701468,3.83703299 C19.7918692,-0.0171449545 14.5022709,-1.15953789 10.677639,1.2905221 L3.96064746,5.59487329 C2.12587539,6.75545072 0.862107675,8.63932399 0.479247084,10.7845272 C0.158831738,12.571613 0.440457919,14.4151005 1.27953704,16.0231187 C0.704577821,16.9000454 0.312430713,17.8850805 0.12679605,18.9186912 C-0.259766036,21.1050892 0.245894041,23.3558793 1.52962121,25.1629354 C4.20846539,29.0174758 9.49808945,30.1593768 13.3221291,27.7094463 L20.0391206,23.4050951 C21.8740223,22.2446523 23.1378331,20.3607148 23.520521,18.2154411 C23.8408938,16.4283764 23.5594885,14.5849248 22.7208233,12.9767202 C23.2956327,12.0998136 23.687615,11.1148182 23.873075,10.0812772 C24.2598926,7.89487323 23.7542103,5.64398398 22.4702499,3.83703299" id="Path" fill="#FF3E00"></path>
                    <path d="M10.5501836,24.8301081 C8.41650415,25.3861101 6.16329011,24.549097 4.90670754,22.7336967 C4.14577579,21.6663124 3.84602594,20.3367088 4.07515065,19.0451511 C4.1135579,18.8352442 4.16641251,18.6282523 4.23333578,18.4256585 L4.35799572,18.0447102 L4.69713063,18.2943435 C5.48033691,18.8710728 6.35604567,19.3095615 7.28651442,19.5909108 L7.53253507,19.6657118 L7.50987193,19.9117844 C7.47981065,20.2618519 7.57439334,20.6112806 7.77685535,20.898135 C8.15501538,21.4449713 8.833418,21.6973159 9.47600681,21.5301664 C9.6198673,21.4916321 9.75698827,21.4312383 9.88259818,21.3510866 L16.5022133,17.1235212 C16.8297107,16.9168527 17.0554111,16.5817099 17.1241425,16.2000177 C17.1927551,15.8107433 17.1024564,15.4101635 16.8735284,15.0882528 C16.4951423,14.541303 15.8165701,14.2888511 15.173717,14.4558653 C15.030046,14.4944028 14.8931074,14.5547525 14.7676586,14.6348179 L12.2416707,16.2485709 C11.8263033,16.5132444 11.3730089,16.7127367 10.8974904,16.8401371 C8.76382899,17.3961065 6.5106504,16.5590851 5.25409052,14.7437003 C4.49312812,13.6763394 4.19337501,12.3467306 4.42253363,11.0551801 C4.64937664,9.78806631 5.39839659,8.67536018 6.48581798,7.99006929 L13.1048494,3.7621478 C13.5203934,3.49703985 13.9740115,3.29729674 14.4499179,3.1698695 C16.5835656,2.61391433 18.8367248,3.45092213 20.0932925,5.26628088 C20.8542242,6.33366516 21.1539741,7.66326871 20.9248494,8.95482649 C20.8862765,9.16469695 20.8334247,9.37167752 20.7666642,9.57431902 L20.6420043,9.95526739 L20.303047,9.70601555 C19.5198959,9.12895632 18.6441031,8.69026644 17.7134856,8.40888867 L17.4674649,8.33406225 L17.4901281,8.08798965 C17.5199308,7.73795348 17.4253716,7.3886202 17.2231447,7.10166455 C16.8449846,6.55482822 16.166582,6.30248357 15.5239932,6.46963311 C15.3801327,6.50816738 15.2430117,6.56856118 15.1174018,6.64871293 L8.49778669,10.8764564 C8.17033417,11.0829624 7.94476092,11.4180839 7.87633966,11.7997055 C7.80730248,12.1889617 7.89744949,12.5896851 8.12647165,12.9115976 C8.50486251,13.4585412 9.18343034,13.7109915 9.82628295,13.5439851 C9.97010778,13.5053718 10.1072087,13.444983 10.2328489,13.3649053 L12.7585069,11.7517627 C13.1736946,11.4867403 13.6269686,11.2870713 14.1025349,11.1597133 C16.2361964,10.6037439 18.489375,11.4407653 19.7459349,13.2561501 C20.5068973,14.3235109 20.8066504,15.6531198 20.5774918,16.9446703 C20.3505001,18.2118499 19.6015341,19.3246513 18.5142074,20.0102643 L11.8951506,24.2378298 C11.4796066,24.5029377 11.0259885,24.7026808 10.5500821,24.8301081" id="Path" fill="#FFFFFF"></path>
                    <path d="M35.12,19.144 C35.984,19.144 36.7493333,19.0026667 37.416,18.72 C38.0826667,18.4373333 38.6,18.0426667 38.968,17.536 C39.336,17.0293333 39.52,16.4453333 39.52,15.784 C39.52,15.176 39.3626667,14.6693333 39.048,14.264 C38.7333333,13.8586667 38.28,13.5253333 37.688,13.264 C37.096,13.0026667 36.3253333,12.7653333 35.376,12.552 C34.48,12.3493333 33.8453333,12.1306667 33.472,11.896 C33.0986667,11.6613333 32.912,11.3253333 32.912,10.888 C32.912,10.3653333 33.1226667,9.95733333 33.544,9.664 C33.9653333,9.37066667 34.5386667,9.224 35.264,9.224 C35.8613333,9.224 36.3653333,9.30133333 36.776,9.456 C37.1866667,9.61066667 37.6106667,9.848 38.048,10.168 C38.1973333,10.2533333 38.3173333,10.312 38.408,10.344 C38.4986667,10.376 38.5973333,10.392 38.704,10.392 C38.8853333,10.392 39.0426667,10.3093333 39.176,10.144 C39.3093333,9.97866667 39.376,9.784 39.376,9.56 C39.376,9.38933333 39.3466667,9.248 39.288,9.136 C39.2293333,9.024 39.1306667,8.90933333 38.992,8.792 C38.032,7.98133333 36.7893333,7.576 35.264,7.576 C34.432,7.576 33.6826667,7.72266667 33.016,8.016 C32.3493333,8.30933333 31.8293333,8.71733333 31.456,9.24 C31.0826667,9.76266667 30.896,10.3546667 30.896,11.016 C30.896,11.656 31.0453333,12.184 31.344,12.6 C31.6426667,13.016 32.0853333,13.3573333 32.672,13.624 C33.2586667,13.8906667 34.0213333,14.1253333 34.96,14.328 C35.8666667,14.5306667 36.5146667,14.7413333 36.904,14.96 C37.2933333,15.1786667 37.488,15.4906667 37.488,15.896 C37.488,16.4186667 37.28,16.816 36.864,17.088 C36.448,17.36 35.8506667,17.496 35.072,17.496 C34.464,17.496 33.9093333,17.4213333 33.408,17.272 C32.9066667,17.1226667 32.4266667,16.8826667 31.968,16.552 C31.7226667,16.4026667 31.504,16.328 31.312,16.328 C31.1306667,16.328 30.9733333,16.4106667 30.84,16.576 C30.7066667,16.7413333 30.64,16.936 30.64,17.16 C30.64,17.4906667 30.7626667,17.7466667 31.008,17.928 C31.4666667,18.3013333 32.0613333,18.5973333 32.792,18.816 C33.5226667,19.0346667 34.2986667,19.144 35.12,19.144 Z M44.432,19.08 C44.6453333,19.08 44.84,19.0266667 45.016,18.92 C45.192,18.8133333 45.328,18.6586667 45.424,18.456 L45.424,18.456 L48.384,12.264 C48.448,12.136 48.48,12.008 48.48,11.88 C48.48,11.6346667 48.3813333,11.4293333 48.184,11.264 C47.9866667,11.0986667 47.7653333,11.016 47.52,11.016 C47.3493333,11.016 47.192,11.064 47.048,11.16 C46.904,11.256 46.7893333,11.4 46.704,11.592 L46.704,11.592 L44.48,16.52 L42.24,11.576 C42.0586667,11.2026667 41.776,11.016 41.392,11.016 C41.1253333,11.016 40.888,11.1013333 40.68,11.272 C40.472,11.4426667 40.368,11.6506667 40.368,11.896 C40.368,12.0346667 40.3946667,12.1573333 40.448,12.264 L40.448,12.264 L43.424,18.456 C43.52,18.6586667 43.6613333,18.8133333 43.848,18.92 C44.0346667,19.0266667 44.2293333,19.08 44.432,19.08 Z M53.328,19.128 C53.744,19.128 54.1813333,19.0666667 54.64,18.944 C55.0986667,18.8213333 55.5093333,18.6586667 55.872,18.456 C56.2666667,18.232 56.464,17.9546667 56.464,17.624 C56.464,17.3893333 56.408,17.2026667 56.296,17.064 C56.184,16.9253333 56.0373333,16.856 55.856,16.856 C55.7066667,16.856 55.472,16.9413333 55.152,17.112 C54.8213333,17.2613333 54.5253333,17.3786667 54.264,17.464 C54.0026667,17.5493333 53.7013333,17.592 53.36,17.592 C52.688,17.592 52.176,17.4186667 51.824,17.072 C51.472,16.7253333 51.264,16.184 51.2,15.448 L51.2,15.448 L55.92,15.448 C56.3253333,15.448 56.528,15.2186667 56.528,14.76 C56.528,13.992 56.384,13.3253333 56.096,12.76 C55.808,12.1946667 55.4026667,11.7573333 54.88,11.448 C54.3573333,11.1386667 53.744,10.984 53.04,10.984 C52.304,10.984 51.6453333,11.1546667 51.064,11.496 C50.4826667,11.8373333 50.032,12.3173333 49.712,12.936 C49.392,13.5546667 49.232,14.264 49.232,15.064 C49.232,16.3226667 49.6,17.3146667 50.336,18.04 C51.072,18.7653333 52.0693333,19.128 53.328,19.128 Z M54.816,14.376 L51.2,14.376 C51.264,13.736 51.4586667,13.2453333 51.784,12.904 C52.1093333,12.5626667 52.544,12.392 53.088,12.392 C53.6213333,12.392 54.0373333,12.56 54.336,12.896 C54.6346667,13.232 54.7946667,13.7253333 54.816,14.376 L54.816,14.376 Z M59.152,19.096 C59.44,19.096 59.68,19.0133333 59.872,18.848 C60.064,18.6826667 60.16,18.4453333 60.16,18.136 L60.16,18.136 L60.16,8.584 C60.16,8.27466667 60.064,8.04 59.872,7.88 C59.68,7.72 59.44,7.64 59.152,7.64 C58.864,7.64 58.6266667,7.72 58.44,7.88 C58.2533333,8.04 58.16,8.27466667 58.16,8.584 L58.16,8.584 L58.16,18.136 C58.16,18.4453333 58.2533333,18.6826667 58.44,18.848 C58.6266667,19.0133333 58.864,19.096 59.152,19.096 Z M65.888,19.08 C66.272,19.1013333 66.568,19.0453333 66.776,18.912 C66.984,18.7786667 67.088,18.584 67.088,18.328 C67.088,17.88 66.8213333,17.64 66.288,17.608 L66.288,17.608 L65.856,17.576 C65.1306667,17.5226667 64.768,17.1013333 64.768,16.312 L64.768,16.312 L64.768,12.68 L66.128,12.68 C66.416,12.68 66.6373333,12.616 66.792,12.488 C66.9466667,12.36 67.024,12.1733333 67.024,11.928 C67.024,11.6826667 66.9466667,11.496 66.792,11.368 C66.6373333,11.24 66.416,11.176 66.128,11.176 L66.128,11.176 L64.768,11.176 L64.768,9.704 C64.768,9.416 64.6773333,9.18666667 64.496,9.016 C64.3146667,8.84533333 64.0746667,8.76 63.776,8.76 C63.4666667,8.76 63.2213333,8.84533333 63.04,9.016 C62.8586667,9.18666667 62.768,9.416 62.768,9.704 L62.768,9.704 L62.768,11.176 L61.968,11.176 C61.68,11.176 61.4586667,11.24 61.304,11.368 C61.1493333,11.496 61.072,11.6826667 61.072,11.928 C61.072,12.1733333 61.1493333,12.36 61.304,12.488 C61.4586667,12.616 61.68,12.68 61.968,12.68 L61.968,12.68 L62.768,12.68 L62.768,16.168 C62.768,17.96 63.664,18.92 65.456,19.048 L65.456,19.048 L65.888,19.08 Z M71.792,19.128 C72.208,19.128 72.6453333,19.0666667 73.104,18.944 C73.5626667,18.8213333 73.9733333,18.6586667 74.336,18.456 C74.7306667,18.232 74.928,17.9546667 74.928,17.624 C74.928,17.3893333 74.872,17.2026667 74.76,17.064 C74.648,16.9253333 74.5013333,16.856 74.32,16.856 C74.1706667,16.856 73.936,16.9413333 73.616,17.112 C73.2853333,17.2613333 72.9893333,17.3786667 72.728,17.464 C72.4666667,17.5493333 72.1653333,17.592 71.824,17.592 C71.152,17.592 70.64,17.4186667 70.288,17.072 C69.936,16.7253333 69.728,16.184 69.664,15.448 L69.664,15.448 L74.384,15.448 C74.7893333,15.448 74.992,15.2186667 74.992,14.76 C74.992,13.992 74.848,13.3253333 74.56,12.76 C74.272,12.1946667 73.8666667,11.7573333 73.344,11.448 C72.8213333,11.1386667 72.208,10.984 71.504,10.984 C70.768,10.984 70.1093333,11.1546667 69.528,11.496 C68.9466667,11.8373333 68.496,12.3173333 68.176,12.936 C67.856,13.5546667 67.696,14.264 67.696,15.064 C67.696,16.3226667 68.064,17.3146667 68.8,18.04 C69.536,18.7653333 70.5333333,19.128 71.792,19.128 Z M73.28,14.376 L69.664,14.376 C69.728,13.736 69.9226667,13.2453333 70.248,12.904 C70.5733333,12.5626667 71.008,12.392 71.552,12.392 C72.0853333,12.392 72.5013333,12.56 72.8,12.896 C73.0986667,13.232 73.2586667,13.7253333 73.28,14.376 L73.28,14.376 Z" id="Svelte" fill="#000000"></path>
                </g>
            </g>
        </g>
    </g>
</svg>