<?xml version="1.0" encoding="UTF-8"?>
<svg width="103px" height="48px" viewBox="0 0 103 48" version="1.1" xmlns="http://www.w3.org/2000/svg" xmlns:xlink="http://www.w3.org/1999/xlink">
    <title>vue</title>
    <g id="Page-1" stroke="none" stroke-width="1" fill="none" fill-rule="evenodd">
        <g id="Header-A" transform="translate(-400.000000, -692.000000)">
            <rect fill="#FFFFFF" x="0" y="0" width="1440" height="1009"></rect>
            <g id="frameworks" transform="translate(160.000000, 692.000000)" fill-rule="nonzero">
                <g id="vue" transform="translate(254.000000, 9.000000)">
                    <path d="M43.712,19.096 C43.936,19.096 44.1466667,19.04 44.344,18.928 C44.5413333,18.816 44.688,18.6586667 44.784,18.456 L44.784,18.456 L49.216,8.92 C49.28,8.77066667 49.312,8.63733333 49.312,8.52 C49.312,8.264 49.2053333,8.05066667 48.992,7.88 C48.7786667,7.70933333 48.5386667,7.624 48.272,7.624 C47.8773333,7.624 47.5946667,7.80533333 47.424,8.168 L47.424,8.168 L43.744,16.344 L40.064,8.168 C39.9786667,7.98666667 39.8586667,7.85066667 39.704,7.76 C39.5493333,7.66933333 39.3813333,7.624 39.2,7.624 C38.9226667,7.624 38.6746667,7.70933333 38.456,7.88 C38.2373333,8.05066667 38.128,8.26933333 38.128,8.536 C38.128,8.64266667 38.16,8.77066667 38.224,8.92 L38.224,8.92 L42.64,18.456 C42.736,18.6586667 42.8826667,18.816 43.08,18.928 C43.2773333,19.04 43.488,19.096 43.712,19.096 Z M53.296,19.128 C53.8186667,19.128 54.288,19.0133333 54.704,18.784 C55.12,18.5546667 55.4506667,18.2266667 55.696,17.8 L55.696,17.8 L55.696,18.2 C55.696,18.4773333 55.7813333,18.696 55.952,18.856 C56.1226667,19.016 56.352,19.096 56.64,19.096 C56.9386667,19.096 57.1813333,19.0106667 57.368,18.84 C57.5546667,18.6693333 57.648,18.4453333 57.648,18.168 L57.648,18.168 L57.648,11.96 C57.648,11.672 57.5573333,11.4426667 57.376,11.272 C57.1946667,11.1013333 56.9493333,11.016 56.64,11.016 C56.3413333,11.016 56.1013333,11.1013333 55.92,11.272 C55.7386667,11.4426667 55.648,11.672 55.648,11.96 L55.648,11.96 L55.648,15.528 C55.648,16.136 55.48,16.624 55.144,16.992 C54.808,17.36 54.3626667,17.544 53.808,17.544 C53.328,17.544 52.976,17.4106667 52.752,17.144 C52.528,16.8773333 52.416,16.4666667 52.416,15.912 L52.416,15.912 L52.416,11.96 C52.416,11.672 52.3253333,11.4426667 52.144,11.272 C51.9626667,11.1013333 51.7173333,11.016 51.408,11.016 C51.1093333,11.016 50.8693333,11.1013333 50.688,11.272 C50.5066667,11.4426667 50.416,11.672 50.416,11.96 L50.416,11.96 L50.416,15.896 C50.416,18.0506667 51.376,19.128 53.296,19.128 Z M63.392,19.128 C63.808,19.128 64.2453333,19.0666667 64.704,18.944 C65.1626667,18.8213333 65.5733333,18.6586667 65.936,18.456 C66.3306667,18.232 66.528,17.9546667 66.528,17.624 C66.528,17.3893333 66.472,17.2026667 66.36,17.064 C66.248,16.9253333 66.1013333,16.856 65.92,16.856 C65.7706667,16.856 65.536,16.9413333 65.216,17.112 C64.8853333,17.2613333 64.5893333,17.3786667 64.328,17.464 C64.0666667,17.5493333 63.7653333,17.592 63.424,17.592 C62.752,17.592 62.24,17.4186667 61.888,17.072 C61.536,16.7253333 61.328,16.184 61.264,15.448 L61.264,15.448 L65.984,15.448 C66.3893333,15.448 66.592,15.2186667 66.592,14.76 C66.592,13.992 66.448,13.3253333 66.16,12.76 C65.872,12.1946667 65.4666667,11.7573333 64.944,11.448 C64.4213333,11.1386667 63.808,10.984 63.104,10.984 C62.368,10.984 61.7093333,11.1546667 61.128,11.496 C60.5466667,11.8373333 60.096,12.3173333 59.776,12.936 C59.456,13.5546667 59.296,14.264 59.296,15.064 C59.296,16.3226667 59.664,17.3146667 60.4,18.04 C61.136,18.7653333 62.1333333,19.128 63.392,19.128 Z M64.88,14.376 L61.264,14.376 C61.328,13.736 61.5226667,13.2453333 61.848,12.904 C62.1733333,12.5626667 62.608,12.392 63.152,12.392 C63.6853333,12.392 64.1013333,12.56 64.4,12.896 C64.6986667,13.232 64.8586667,13.7253333 64.88,14.376 L64.88,14.376 Z" id="Vue" fill="#2C2C2C"></path>
                    <polygon id="Path" fill="#6563FF" points="8.14898182 1.95448636 13.1211136 1.95624545 15.0077727 4.62351818 16.8818182 1.95624545 21.8500091 1.95523636 15.0324682 13.4187273"></polygon>
                    <path d="M18.5448409,0.586363636 C18.1007318,0.586363636 17.6844273,0.802554545 17.4290591,1.16590909 L15,4.62272727 L12.5574545,1.16345455 C12.30195,0.801545455 11.8865318,0.586363636 11.4435136,0.586363636 L7.33636364,0.586363636 L12.1772727,8.65909091 L15.0409091,13.4318182 L17.8636364,8.65909091 L22.6636364,0.586363636 L18.5448409,0.586363636 Z" id="Path" fill="#14610F"></path>
                    <path d="M28.6377,0.597927273 L22.6595455,0.593263636 L17.8635955,8.65906364 L15.0409364,13.4317909 L12.1772455,8.65906364 L7.34192727,0.595677273 L1.35631364,0.628554545 C1.11602727,0.629713636 0.880404545,0.694390909 0.673159091,0.815986364 C0.0236318182,1.19709545 -0.193922727,2.03247273 0.187104545,2.682 L13.8501,26.0076409 C14.09505,26.4249545 14.5427318,26.6814682 15.0266318,26.6814682 L15.0279682,26.6814682 C15.5127,26.6810455 15.9608045,26.4235364 16.2051682,26.0049818 L29.8149,2.64871364 C29.9360727,2.44071818 30,2.20434545 30.0003281,1.96363636 C30.0011591,1.21024091 29.3911773,0.598840909 28.6377,0.597927273 Z" id="Path" fill="#ABD5A8"></path>
                </g>
            </g>
        </g>
    </g>
</svg>