<?xml version="1.0" encoding="UTF-8"?>
<svg viewBox="0 0 438 383" xmlns="http://www.w3.org/2000/svg" xmlns:xlink="http://www.w3.org/1999/xlink">
    <g><path d="M421.875,70.40625 C426.432292,70.40625 430.175781,68.9414062 433.105469,66.0117188 C436.035156,63.0820312 437.5,59.3385417 437.5,54.78125 L437.5,54.78125 L437.5,15.71875 C437.5,11.1614583 436.035156,7.41796875 433.105469,4.48828125 C430.175781,1.55859375 426.432292,0.09375 421.875,0.09375 L421.875,0.09375 L15.625,0.09375 C11.0677083,0.09375 7.32421875,1.55859375 4.39453125,4.48828125 C1.46484375,7.41796875 0,11.1614583 0,15.71875 L0,15.71875 L0,54.78125 C0,59.3385417 1.46484375,63.0820312 4.39453125,66.0117188 C7.32421875,68.9414062 11.0677083,70.40625 15.625,70.40625 L15.625,70.40625 L421.875,70.40625 Z M421.875,226.65625 C426.432292,226.65625 430.175781,225.191406 433.105469,222.261719 C436.035156,219.332031 437.5,215.588542 437.5,211.03125 L437.5,211.03125 L437.5,171.96875 C437.5,167.411458 436.035156,163.667969 433.105469,160.738281 C430.175781,157.808594 426.432292,156.34375 421.875,156.34375 L421.875,156.34375 L15.625,156.34375 C11.0677083,156.34375 7.32421875,157.808594 4.39453125,160.738281 C1.46484375,163.667969 0,167.411458 0,171.96875 L0,171.96875 L0,211.03125 C0,215.588542 1.46484375,219.332031 4.39453125,222.261719 C7.32421875,225.191406 11.0677083,226.65625 15.625,226.65625 L15.625,226.65625 L421.875,226.65625 Z M421.875,382.90625 C426.432292,382.90625 430.175781,381.441406 433.105469,378.511719 C436.035156,375.582031 437.5,371.838542 437.5,367.28125 L437.5,367.28125 L437.5,328.21875 C437.5,323.661458 436.035156,319.917969 433.105469,316.988281 C430.175781,314.058594 426.432292,312.59375 421.875,312.59375 L421.875,312.59375 L15.625,312.59375 C11.0677083,312.59375 7.32421875,314.058594 4.39453125,316.988281 C1.46484375,319.917969 0,323.661458 0,328.21875 L0,328.21875 L0,367.28125 C0,371.838542 1.46484375,375.582031 4.39453125,378.511719 C7.32421875,381.441406 11.0677083,382.90625 15.625,382.90625 L15.625,382.90625 L421.875,382.90625 Z"></path></g>
</svg>