<svg  width="15" viewBox="0 0 30 30" fill="none" xmlns="http://www.w3.org/2000/svg">
<path d="M29.1211 0H0.878906C0.3935 0 0 0.3935 0 0.878906V29.1211C0 29.6065 0.3935 30 0.878906 30H29.1211C29.6065 30 30 29.6065 30 29.1211V0.878906C30 0.3935 29.6065 0 29.1211 0Z" fill="#F7DF1E"/>
<path d="M18.9844 19.6797C19.5703 20.6758 20.3906 21.3789 21.7383 21.3789C22.9102 21.3789 23.6719 20.793 23.6719 19.9727C23.6719 19.0352 22.9102 18.6836 21.6211 18.0977L20.918 17.8047C18.8672 16.9258 17.5195 15.8711 17.5195 13.5859C17.5195 11.4766 19.1016 9.83594 21.6211 9.83594C23.4375 9.83594 24.7266 10.4805 25.6055 12.1211L23.4375 13.5273C22.9688 12.6484 22.4414 12.2969 21.6211 12.2969C20.8008 12.2969 20.2734 12.8242 20.2734 13.5273C20.2734 14.3477 20.8008 14.6992 22.0312 15.2266L22.7344 15.5195C25.1367 16.5742 26.4844 17.5703 26.4844 19.9727C26.4844 22.4922 24.4922 23.8984 21.7969 23.8984C19.1602 23.8984 17.4609 22.668 16.6406 21.0273L18.9844 19.6797ZM9.02344 19.9141C9.49219 20.6758 9.84375 21.3789 10.8398 21.3789C11.7773 21.3789 12.3633 21.0273 12.3633 19.6211V9.89453H15.1758V19.5039C15.1758 22.4336 13.4766 23.7227 10.957 23.7227C8.67188 23.7227 7.38281 22.5508 6.73828 21.1445L9.02344 19.9141Z" fill="black"/>
</svg>
