<svg xmlns="http://www.w3.org/2000/svg" width="15" viewBox="0 0 30 34">
        <path d="M22.4701468,3.83703299 C19.7918692,-0.0171449545 14.5022709,-1.15953789 10.677639,1.2905221 L3.96064746,5.59487329 C2.12587539,6.75545072 0.862107675,8.63932399 0.479247084,10.7845272 C0.158831738,12.571613 0.440457919,14.4151005 1.27953704,16.0231187 C0.704577821,16.9000454 0.312430713,17.8850805 0.12679605,18.9186912 C-0.259766036,21.1050892 0.245894041,23.3558793 1.52962121,25.1629354 C4.20846539,29.0174758 9.49808945,30.1593768 13.3221291,27.7094463 L20.0391206,23.4050951 C21.8740223,22.2446523 23.1378331,20.3607148 23.520521,18.2154411 C23.8408938,16.4283764 23.5594885,14.5849248 22.7208233,12.9767202 C23.2956327,12.0998136 23.687615,11.1148182 23.873075,10.0812772 C24.2598926,7.89487323 23.7542103,5.64398398 22.4702499,3.83703299" id="Path" fill="#FF3E00"></path>
        <path d="M10.5501836,24.8301081 C8.41650415,25.3861101 6.16329011,24.549097 4.90670754,22.7336967 C4.14577579,21.6663124 3.84602594,20.3367088 4.07515065,19.0451511 C4.1135579,18.8352442 4.16641251,18.6282523 4.23333578,18.4256585 L4.35799572,18.0447102 L4.69713063,18.2943435 C5.48033691,18.8710728 6.35604567,19.3095615 7.28651442,19.5909108 L7.53253507,19.6657118 L7.50987193,19.9117844 C7.47981065,20.2618519 7.57439334,20.6112806 7.77685535,20.898135 C8.15501538,21.4449713 8.833418,21.6973159 9.47600681,21.5301664 C9.6198673,21.4916321 9.75698827,21.4312383 9.88259818,21.3510866 L16.5022133,17.1235212 C16.8297107,16.9168527 17.0554111,16.5817099 17.1241425,16.2000177 C17.1927551,15.8107433 17.1024564,15.4101635 16.8735284,15.0882528 C16.4951423,14.541303 15.8165701,14.2888511 15.173717,14.4558653 C15.030046,14.4944028 14.8931074,14.5547525 14.7676586,14.6348179 L12.2416707,16.2485709 C11.8263033,16.5132444 11.3730089,16.7127367 10.8974904,16.8401371 C8.76382899,17.3961065 6.5106504,16.5590851 5.25409052,14.7437003 C4.49312812,13.6763394 4.19337501,12.3467306 4.42253363,11.0551801 C4.64937664,9.78806631 5.39839659,8.67536018 6.48581798,7.99006929 L13.1048494,3.7621478 C13.5203934,3.49703985 13.9740115,3.29729674 14.4499179,3.1698695 C16.5835656,2.61391433 18.8367248,3.45092213 20.0932925,5.26628088 C20.8542242,6.33366516 21.1539741,7.66326871 20.9248494,8.95482649 C20.8862765,9.16469695 20.8334247,9.37167752 20.7666642,9.57431902 L20.6420043,9.95526739 L20.303047,9.70601555 C19.5198959,9.12895632 18.6441031,8.69026644 17.7134856,8.40888867 L17.4674649,8.33406225 L17.4901281,8.08798965 C17.5199308,7.73795348 17.4253716,7.3886202 17.2231447,7.10166455 C16.8449846,6.55482822 16.166582,6.30248357 15.5239932,6.46963311 C15.3801327,6.50816738 15.2430117,6.56856118 15.1174018,6.64871293 L8.49778669,10.8764564 C8.17033417,11.0829624 7.94476092,11.4180839 7.87633966,11.7997055 C7.80730248,12.1889617 7.89744949,12.5896851 8.12647165,12.9115976 C8.50486251,13.4585412 9.18343034,13.7109915 9.82628295,13.5439851 C9.97010778,13.5053718 10.1072087,13.444983 10.2328489,13.3649053 L12.7585069,11.7517627 C13.1736946,11.4867403 13.6269686,11.2870713 14.1025349,11.1597133 C16.2361964,10.6037439 18.489375,11.4407653 19.7459349,13.2561501 C20.5068973,14.3235109 20.8066504,15.6531198 20.5774918,16.9446703 C20.3505001,18.2118499 19.6015341,19.3246513 18.5142074,20.0102643 L11.8951506,24.2378298 C11.4796066,24.5029377 11.0259885,24.7026808 10.5500821,24.8301081" fill="#FFFFFF"></path>
</svg>